<svg id="SvgjsSvg1044" width="288" height="288" xmlns="http://www.w3.org/2000/svg" version="1.1" xmlns:xlink="http://www.w3.org/1999/xlink" xmlns:svgjs="http://svgjs.com/svgjs"><defs id="SvgjsDefs1045"></defs><g id="SvgjsG1046"><svg xmlns="http://www.w3.org/2000/svg" enable-background="new 0 0 512 512" viewBox="0 0 512 512" width="288" height="288"><linearGradient id="a" x1="44.989" x2="432.585" y1="457.077" y2="69.482" gradientUnits="userSpaceOnUse"><stop offset="0" stop-color="#ffffff" class="stopColorfcc60e svgShape"></stop><stop offset="1" stop-color="#ffffff" class="stopColore92e29 svgShape"></stop></linearGradient><path fill="url(#a)" fill-rule="evenodd" d="M206.728,49.224l19.54,15.706l-6.577,24.192
	c-1.114,4.1,0.387,8.362,3.823,10.86c1.789,1.3,3.869,1.953,5.955,1.952c1.923,0,3.851-0.556,5.557-1.672L256,86.532l20.976,13.73
	c3.556,2.327,8.074,2.22,11.517-0.283c3.433-2.498,4.932-6.759,3.818-10.858l-6.577-24.191l19.539-15.705
	c3.312-2.659,4.604-6.989,3.294-11.03c-1.312-4.044-4.903-6.791-9.149-6.997l-25.04-1.221l-8.898-23.436c0,0,0,0,0-0.001V6.539
	C263.97,2.567,260.25,0,256.001,0c-4.25,0-7.971,2.567-9.479,6.539l-8.898,23.438l-25.039,1.221
	c-4.247,0.206-7.839,2.953-9.147,6.989C202.121,42.232,203.415,46.566,206.728,49.224z M242.234,45.771
	c4.027-0.194,7.554-2.756,8.986-6.526l4.78-12.591l4.78,12.592c1.432,3.77,4.959,6.331,8.983,6.525l13.451,0.656l-10.497,8.437
	c-3.142,2.524-4.488,6.669-3.432,10.561l3.533,12.996l-11.262-7.372c-1.689-1.107-3.625-1.661-5.56-1.661
	c-1.934,0-3.866,0.553-5.551,1.657l-11.268,7.376l3.534-13c1.056-3.893-0.293-8.037-3.433-10.557l-10.496-8.437L242.234,45.771z
	 M319.497,70.852l19.541,15.705l-6.577,24.192c-1.114,4.1,0.387,8.362,3.823,10.86c1.789,1.3,3.869,1.953,5.955,1.952
	c1.923,0,3.851-0.556,5.557-1.672l20.975-13.73l20.976,13.73c3.554,2.326,8.069,2.218,11.517-0.283
	c3.434-2.498,4.933-6.76,3.818-10.857l-6.577-24.192l19.539-15.704c3.314-2.664,4.606-6.996,3.294-11.031
	c-1.312-4.044-4.903-6.791-9.149-6.997l-25.04-1.221l-8.898-23.436c0,0,0,0,0-0.001v-0.001c-1.509-3.972-5.229-6.539-9.478-6.539
	c-4.25,0-7.971,2.567-9.479,6.539l-8.898,23.438l-25.039,1.221c-4.247,0.206-7.839,2.953-9.147,6.989
	C314.894,63.854,316.184,68.185,319.497,70.852z M355.005,67.397c4.027-0.194,7.554-2.756,8.986-6.526l4.779-12.591l4.781,12.592
	c1.432,3.77,4.959,6.331,8.983,6.525l13.451,0.656l-10.498,8.438c-3.145,2.527-4.49,6.675-3.431,10.56l3.533,12.996l-11.262-7.372
	c-1.688-1.107-3.624-1.661-5.559-1.661c-1.934,0-3.866,0.553-5.553,1.657l-11.267,7.375l3.534-12.997
	c1.056-3.89-0.291-8.034-3.433-10.559l-10.497-8.437L355.005,67.397z M93.956,70.852l19.54,15.705l-6.574,24.185
	c-1.119,4.103,0.38,8.368,3.82,10.868c1.79,1.3,3.871,1.953,5.956,1.953c1.924,0,3.852-0.556,5.556-1.673l20.975-13.73l20.976,13.73
	c3.556,2.328,8.073,2.219,11.513-0.28c3.437-2.497,4.937-6.76,3.822-10.86l-6.577-24.192l19.545-15.708
	c3.31-2.664,4.6-6.995,3.288-11.027c-1.312-4.044-4.903-6.791-9.149-6.997l-25.04-1.221l-8.898-23.436c0,0,0,0,0-0.001v-0.001
	c-1.509-3.972-5.229-6.539-9.478-6.539c-4.254,0-7.976,2.57-9.477,6.539l-8.899,23.438l-25.04,1.221
	c-4.242,0.206-7.833,2.95-9.15,6.997C89.354,63.862,90.646,68.191,93.956,70.852z M129.463,67.397
	c4.031-0.195,7.56-2.76,8.985-6.526l4.781-12.59l4.78,12.591c1.432,3.77,4.959,6.331,8.983,6.525l13.451,0.656l-10.503,8.44
	c-3.137,2.526-4.481,6.669-3.426,10.557l3.533,12.996l-11.262-7.372c-1.689-1.107-3.625-1.661-5.56-1.661
	c-1.934,0-3.866,0.553-5.551,1.657l-11.267,7.375l3.533-12.997c1.057-3.893-0.292-8.038-3.433-10.559l-10.497-8.437L129.463,67.397z
	 M174.261,194.636c6.002-6.245,9.705-14.717,9.705-24.042c0-19.147-15.578-34.726-34.726-34.726s-34.726,15.578-34.726,34.726
	c0,9.328,3.704,17.803,9.71,24.048c-15.57,6.971-27.814,20.351-33.129,37.514c-1.913,6.176-0.819,12.689,2.999,17.869
	c3.819,5.181,9.718,8.152,16.185,8.152h67.476v6.28c0,14.822,12.06,26.881,26.882,26.881h102.728
	c14.82,0,26.88-12.059,26.881-26.881v-6.277h67.477c6.467,0,12.365-2.972,16.185-8.152c3.818-5.181,4.911-11.694,2.998-17.87
	c-5.314-17.163-17.559-30.543-33.128-37.514c6.006-6.246,9.71-14.72,9.71-24.048c0-19.147-15.578-34.726-34.726-34.726
	s-34.726,15.578-34.726,34.726c0,9.325,3.702,17.796,9.704,24.041c-7.507,3.369-14.274,8.26-19.9,14.448
	c-8.631-10.962-20.097-19.52-33.262-24.63c9.266-8.023,15.145-19.858,15.145-33.048c0-24.108-19.613-43.723-43.722-43.723
	s-43.723,19.614-43.723,43.723c0,13.19,5.879,25.025,15.145,33.048c-13.165,5.11-24.63,13.668-33.262,24.63
	C188.535,202.896,181.768,198.005,174.261,194.636z M149.24,151.868c10.325,0,18.726,8.4,18.726,18.726s-8.4,18.726-18.726,18.726
	s-18.726-8.4-18.726-18.726S138.915,151.868,149.24,151.868z M106.974,240.532c-0.453-0.615-1.133-1.905-0.595-3.644
	c5.849-18.883,23.072-31.569,42.86-31.569c14.387,0,27.527,6.695,35.975,18.085c-2.841,5.87-4.991,12.156-6.314,18.773h-68.621
	C108.459,242.178,107.427,241.146,106.974,240.532z M344.035,170.596c0-10.325,8.4-18.726,18.726-18.726s18.726,8.4,18.726,18.726
	s-8.4,18.726-18.726,18.726S344.035,180.921,344.035,170.596z M362.761,205.321c19.789,0,37.013,12.687,42.86,31.57
	c0.538,1.738-0.141,3.028-0.594,3.644c-0.453,0.614-1.485,1.646-3.306,1.646h-68.621c-1.323-6.617-3.474-12.904-6.314-18.775
	C335.233,212.017,348.374,205.321,362.761,205.321z M256.001,123.684c15.286,0,27.722,12.437,27.722,27.723
	s-12.436,27.722-27.722,27.722s-27.723-12.436-27.723-27.722S240.715,123.684,256.001,123.684z M256,195.128
	c31.961,0,58.647,23.826,62.245,55.489v13.84c-0.001,6-4.882,10.882-10.881,10.882H204.637c-6,0-10.882-4.881-10.882-10.881v-13.841
	C197.353,218.954,224.039,195.128,256,195.128z M491.041,325.618c-4.586-7.657-23.399-30.395-72.941-1.54l-86.962,50.65
	c-4.125,2.402-8.317,4.134-12.679,5.212c1.559-2.627,2.79-5.566,3.655-8.795c4.483-16.737-5.46-34.211-22.637-39.78
	c-0.344-0.11-0.693-0.198-1.048-0.263c-24.968-4.503-49.621-13.416-69.431-20.577c-6.891-2.491-13.398-4.844-18.935-6.639
	c-22.375-7.261-42.566,1.711-59.372,11.441l-64.451,37.315l-6.928-12.242c-2.729-4.824-7.188-8.3-12.553-9.786
	c-5.363-1.486-10.977-0.802-15.799,1.929l-24.399,13.809c-9.983,5.65-13.509,18.368-7.858,28.352l71.733,126.749
	c3.823,6.755,10.882,10.553,18.14,10.553c3.469,0,6.984-0.868,10.212-2.695l24.4-13.809c4.823-2.73,8.299-7.188,9.785-12.553
	c1.487-5.365,0.803-10.976-1.928-15.8l-6.288-11.11l14.403-8.315l111.267,29.813c6.316,1.693,12.517,2.538,18.584,2.538
	c12.096,0,23.66-3.36,34.544-10.061l157.815-97.176C495.883,363.905,500.492,341.398,491.041,325.618z M137.557,478.676
	c-0.346,1.246-1.144,2.276-2.248,2.901l-24.4,13.81c-1.104,0.625-2.398,0.778-3.645,0.434c-1.246-0.346-2.277-1.145-2.902-2.248
	L32.628,366.823c-0.625-1.104-0.778-2.398-0.434-3.645c0.346-1.246,1.145-2.276,2.249-2.902l24.399-13.809
	c0.719-0.406,1.519-0.614,2.332-0.614c0.438,0,0.878,0.06,1.313,0.181c1.245,0.345,2.276,1.144,2.901,2.248l61.563,108.777
	c0.003,0.006,0.005,0.012,0.009,0.017c0.002,0.004,0.005,0.008,0.007,0.012l10.155,17.942
	C137.748,476.135,137.902,477.43,137.557,478.676z M472.983,359.214L315.168,456.39c-12.445,7.663-26.107,9.58-40.598,5.692
	l-114.468-30.671c-2.046-0.55-4.233-0.262-6.07,0.799l-17.155,9.903l-42.755-75.545l64.587-37.394
	c14.444-8.363,30.065-15.374,46.418-10.067c5.284,1.713,11.377,3.915,18.432,6.466c20.225,7.312,45.36,16.398,71.45,21.171
	c8.933,3.132,13.928,11.759,11.649,20.262c-2.997,11.184-12.332,12.583-19.762,11.731c-12.795-2.631-24.959-6.103-37.83-9.779
	c-6.11-1.745-12.429-3.55-18.925-5.29c-4.268-1.143-8.653,1.39-9.798,5.657c-1.144,4.268,1.39,8.654,5.657,9.798
	c6.369,1.706,12.623,3.492,18.671,5.22c13.277,3.792,25.818,7.374,39.328,10.136c0.052,0.011,0.104,0.014,0.155,0.024
	c0.055,0.01,0.107,0.026,0.163,0.035l10.813,1.758c16.241,2.601,30.652,0.067,44.058-7.739l86.962-50.65
	c24.882-14.489,44.008-16.01,51.163-4.065C482.236,342.057,480.051,354.863,472.983,359.214z M66.752,372.414
	c0.696,4.76-2.599,9.184-7.359,9.88c-4.761,0.696-9.184-2.599-9.88-7.36c-0.696-4.76,2.599-9.184,7.36-9.88
	C61.632,364.358,66.056,367.653,66.752,372.414z" clip-rule="evenodd"></path></svg></g></svg>