<svg id="SvgjsSvg1012" width="288" height="288" xmlns="http://www.w3.org/2000/svg" version="1.1" xmlns:xlink="http://www.w3.org/1999/xlink" xmlns:svgjs="http://svgjs.com/svgjs"><defs id="SvgjsDefs1013"></defs><g id="SvgjsG1014"><svg xmlns="http://www.w3.org/2000/svg" data-name="Layer 1" viewBox="0 0 512 512" width="288" height="288"><path d="M500.4,49H11.6A7.621,7.621,0,0,0,4,56.946V455.054A7.621,7.621,0,0,0,11.6,463H500.4a7.621,7.621,0,0,0,7.6-7.946V56.946A7.621,7.621,0,0,0,500.4,49ZM20,65H492V169H20ZM414.809,341H370V243.419A8.513,8.513,0,0,0,361.832,235H256.121c-.041,0-.08,0-.121.006s-.08-.006-.121-.006H150.168A8.513,8.513,0,0,0,142,243.419V341H97.191A8.464,8.464,0,0,0,89,349.342V447H62V185H450V447H423V349.342A8.464,8.464,0,0,0,414.809,341ZM353,357h18v7.267l-6.175-2.089a8.882,8.882,0,0,0-5.587,0L353,364.266Zm-106,0h18v7.267l-6.151-2.089a8.916,8.916,0,0,0-5.6,0L247,364.267Zm-106,0h18v7.266l-6.126-2.088a8.956,8.956,0,0,0-5.611,0L141,364.267Zm53-106h18v7.344l-6.14-2.089a8.931,8.931,0,0,0-5.6,0L194,258.344Zm-12.415,25.155a8.216,8.216,0,0,0,7.381,1.023l14-4.9,13.978,4.9a8.081,8.081,0,0,0,2.661.451,8.605,8.605,0,0,0,4.823-1.474A8.192,8.192,0,0,0,228,269.629V251h20v90H158V251h20v18.629A8.209,8.209,0,0,0,181.585,276.155ZM300,251h18v7.344l-6.163-2.089a8.894,8.894,0,0,0-5.591,0L300,258.344Zm-12.438,25.155a8.19,8.19,0,0,0,7.369,1.023l14-4.9,13.975,4.9a8.073,8.073,0,0,0,2.659.451,8.679,8.679,0,0,0,4.846-1.474A8.216,8.216,0,0,0,334,269.629V251h20v90H264V251h20v18.629A8.183,8.183,0,0,0,287.562,276.155ZM20,185H46V447H20Zm85,262V357h20v18.552a8.219,8.219,0,0,0,3.6,6.526,8.347,8.347,0,0,0,7.443,1.023l13.979-4.9,13.963,4.9a8.383,8.383,0,0,0,7.46-1.023A8.179,8.179,0,0,0,175,375.552V357h20v90Zm106,0V357h20v18.552a8.282,8.282,0,0,0,10.949,7.549l14-4.9,13.976,4.9a8.075,8.075,0,0,0,2.66.451,8.646,8.646,0,0,0,4.835-1.474A8.2,8.2,0,0,0,281,375.552V357h20v90Zm106,0V357h20v18.552a8.251,8.251,0,0,0,10.915,7.549l13.994-4.9,13.973,4.9a8.069,8.069,0,0,0,2.659.451,8.716,8.716,0,0,0,4.857-1.474,8.227,8.227,0,0,0,3.6-6.526V357h20v90Zm149,0V185h26V447Z" fill="#ffffff" class="color000 svgShape"></path><path d="M479 87a8 8 0 0 0-8-8H42a8 8 0 0 0-8 8v60a8 8 0 0 0 8 8H471a8 8 0 0 0 8-8zm-17 52H50V95H462zM230.664 409h33.2a8 8 0 1 0 0-16h-33.2a8 8 0 0 0 0 16zM281.336 415H230.664a8 8 0 0 0 0 16h50.672a8 8 0 0 0 0-16zM336.617 409h33.2a8 8 0 1 0 0-16h-33.2a8 8 0 1 0 0 16zM387.29 415H336.617a8 8 0 1 0 0 16H387.29a8 8 0 0 0 0-16zM124.71 409h33.2a8 8 0 0 0 0-16h-33.2a8 8 0 0 0 0 16zM175.383 415H124.71a8 8 0 0 0 0 16h50.673a8 8 0 1 0 0-16zM169.688 295a8 8 0 0 0 8 8h33.2a8 8 0 0 0 0-16h-33.2A8 8 0 0 0 169.688 295zM169.688 317a8 8 0 0 0 8 8h50.671a8 8 0 1 0 0-16H177.688A8 8 0 0 0 169.688 317zM275.641 295a8 8 0 0 0 8 8h33.2a8 8 0 0 0 0-16h-33.2A8 8 0 0 0 275.641 295zM275.641 317a8 8 0 0 0 8 8h50.671a8 8 0 0 0 0-16H283.641A8 8 0 0 0 275.641 317z" fill="#ffffff" class="color000 svgShape"></path></svg></g></svg>