<svg id="SvgjsSvg1026" width="288" height="288" xmlns="http://www.w3.org/2000/svg" version="1.1" xmlns:xlink="http://www.w3.org/1999/xlink" xmlns:svgjs="http://svgjs.com/svgjs"><defs id="SvgjsDefs1027"></defs><g id="SvgjsG1028"><svg xmlns="http://www.w3.org/2000/svg" data-name="Layer 1" viewBox="0 0 32 32" width="288" height="288"><path d="M19.25781,11.5h-1.4541a1.8759,1.8759,0,0,0-1.30017-1.30267l-.00891-2.4151a.49992.49992,0,0,0-.5-.498h-.002a.5.5,0,0,0-.498.502l.00891,2.409A1.87517,1.87517,0,1,0,17.80371,12.5h1.4541a.5.5,0,0,0,0-1ZM16,12.87988A.87988.87988,0,1,1,16.87988,12,.88064.88064,0,0,1,16,12.87988ZM29.916,23.74707l-2.4873-.64807v-.07184a3.362,3.362,0,0,0,1.12744-1.93341l.2915-2.56641-.00006-.00171.00592-.052c.0014-.01227-.00354-.02319-.00305-.03534.00037-.00769.00647-.01355.00647-.0213V16.13965a1.62715,1.62715,0,0,0-1.16376-1.55084,12.03076,12.03076,0,0,0-.01642-5.3222A11.994,11.994,0,0,0,5.811,5.6709a11.88993,11.88993,0,0,0-1.69659,7.93042L3.958,13.47461a.49518.49518,0,0,0-.53027-.0625.50041.50041,0,0,0-.28467.45117V18.417c0,.00775.0061.01361.00647.0213.00049.01215-.00446.02307-.00305.03534l.30371,2.66211a3.31682,3.31682,0,0,0,1.12158,1.89288v.07019l-2.49072.64825A2.79767,2.79767,0,0,0,0,26.44043v5.06934a.49971.49971,0,0,0,.5.5h31a.49971.49971,0,0,0,.5-.5V26.44043A2.797,2.797,0,0,0,29.916,23.74707Zm-2.34668-2.80859a2.33285,2.33285,0,0,1-1.25684,1.63867l-.52393.26172a.65057.65057,0,0,1-.57666,0l-.5249-.26172a2.32215,2.32215,0,0,1-1.25-1.59668l-.26855-2.36914.10089-.09528.7243-.67719c.115.02344.22986.03369.34467.05127a8.2712,8.2712,0,0,0,2.38428.00848c.121-.01483.23914-.0246.36237-.04315l.74811.74573Zm-1.14062,2.69781v.61957a.93017.93017,0,0,1-1.58594.65234.91648.91648,0,0,1-.271-.65234v-.61938l.19434.09692a1.65379,1.65379,0,0,0,1.46826,0ZM16.8125,22.57715l-.52393.26172a.65057.65057,0,0,1-.57666,0l-.5249-.26172a2.32215,2.32215,0,0,1-1.25-1.59668l-.26855-2.36914.10089-.09528.7243-.67719c.11456.02332.22906.03357.34344.05109a8.27814,8.27814,0,0,0,2.39026.00812c.11938-.01471.236-.02429.3576-.0426l.74811.74573-.26373,2.33728A2.33285,2.33285,0,0,1,16.8125,22.57715Zm.11621,1.05914v.61957a.93017.93017,0,0,1-1.58594.65234.91648.91648,0,0,1-.271-.65234v-.61938l.19434.09692a1.65379,1.65379,0,0,0,1.46826,0Zm-3.28564-6.42657V14.91211l.1167.09473a2.22627,2.22627,0,0,0,1.397.49414h2.55762a.641.641,0,0,1,.64258.63867v1.06958l-.07178-.07153a1.10389,1.10389,0,0,0-.14349-.10742c-.02271-.01581-.04279-.03577-.06647-.04968-.02124-.01239-.04456-.01855-.06641-.02942a1.04664,1.04664,0,0,0-.68311-.09668,6.3976,6.3976,0,0,1-2.31653.05225c-.10455-.01666-.20844-.02747-.31384-.04932a1.08477,1.08477,0,0,0-.77051.12476,1.05685,1.05685,0,0,0-.08893.06683,1.142,1.142,0,0,0-.12982.09747Zm4.28564,5.81744a3.362,3.362,0,0,0,1.12744-1.93341l.2915-2.56641-.00006-.00171.00592-.052c.0014-.01227-.00354-.02319-.00305-.03534.00037-.00769.00647-.01355.00647-.0213V16.13965A1.65446,1.65446,0,0,0,17.66309,14.501H15.15674a1.22068,1.22068,0,0,1-.76709-.27148l-.93164-.75488a.49518.49518,0,0,0-.53027-.0625.50041.50041,0,0,0-.28467.45117V18.417c0,.00775.0061.01361.00647.0213.00049.01215-.00446.02307-.00305.03534l.30371,2.66211a3.31682,3.31682,0,0,0,1.12158,1.89288v.07123l-2.4917.65015a2.76964,2.76964,0,0,0-.346.12195,2.26487,2.26487,0,0,0-.31805-.12488L8.42871,23.099v-.07184a3.362,3.362,0,0,0,1.12744-1.93341l.2915-2.56641-.00006-.00171.00592-.052c.0014-.01227-.00354-.02319-.00305-.03534.00037-.00769.00647-.01355.00647-.0213V16.13965A1.65446,1.65446,0,0,0,8.16309,14.501H7.1889A9.19013,9.19013,0,0,1,6.874,12.459h1.2666a.5.5,0,0,0,0-1H6.86847A9.01945,9.01945,0,0,1,9.25305,5.88037l.90222.90186a.49995.49995,0,0,0,.707-.707l-.895-.89465A9.06338,9.06338,0,0,1,15.5,2.91388V4.18164a.5.5,0,0,0,1,0V2.91412A9.10684,9.10684,0,0,1,22.10651,5.2392l-.89459.89459a.49995.49995,0,1,0,.707.707l.89459-.89459A9.13009,9.13009,0,0,1,25.12781,11.459H23.77734a.5.5,0,0,0,0,1h1.35114a9.1857,9.1857,0,0,1-.32556,2.042h-.14618a1.22068,1.22068,0,0,1-.76709-.27148l-.93164-.75488a.49518.49518,0,0,0-.53027-.0625.50041.50041,0,0,0-.28467.45117V18.417c0,.00775.0061.01361.00647.0213.00049.01215-.00446.02307-.00305.03534l.30371,2.66211a3.31682,3.31682,0,0,0,1.12158,1.89288v.07025l-2.48047.64624a2.28039,2.28039,0,0,0-.32483.127,2.76858,2.76858,0,0,0-.34656-.12213l-2.49121-.65Zm9.92822-6.88751v1.06958l-.07178-.07153a1.102,1.102,0,0,0-.15155-.11353c-.01978-.01349-.037-.03107-.05756-.04315-.02655-.0155-.05566-.02368-.08325-.03674a1.04509,1.04509,0,0,0-.66711-.08978,6.39825,6.39825,0,0,1-2.32312.05127c-.10242-.01642-.2041-.02692-.30725-.04834a1.08477,1.08477,0,0,0-.77051.12476,1.05685,1.05685,0,0,0-.08893.06683,1.142,1.142,0,0,0-.12982.09747l-.063.06323V14.91211l.1167.09473a2.22627,2.22627,0,0,0,1.397.49414h2.55762A.641.641,0,0,1,27.85693,16.13965ZM6.66064,6.19824a10.99248,10.99248,0,0,1,20.04248,3.2959,11.02845,11.02845,0,0,1-.01074,5.00684h-.83862a10.33785,10.33785,0,0,0,.3064-2.54492A10.15149,10.15149,0,0,0,8.90057,4.79388c-.00494.00458-.01147.006-.0163.0108-.00507.00507-.00659.0119-.01141.01715a10.0855,10.0855,0,0,0-3.02722,7.123l-.00287.0141.00165.00806c-.00043.02789-.00439.05481-.00458.08276A9.75748,9.75748,0,0,0,6.1662,14.501H5.65674a1.21709,1.21709,0,0,1-.37256-.06415A10.91186,10.91186,0,0,1,6.66064,6.19824ZM4.14307,14.91211l.1167.09473a2.19392,2.19392,0,0,0,.3728.23865l.01465.00665a2.22454,2.22454,0,0,0,1.00952.24884H8.21436a.641.641,0,0,1,.64258.63867v1.06958l-.07178-.07153a1.097,1.097,0,0,0-.14136-.10577c-.02344-.01648-.04425-.037-.06879-.05145-.02045-.01184-.04291-.01782-.0639-.02826a1.06017,1.06017,0,0,0-.54279-.1015.48647.48647,0,0,0-.121.00323c-.00726.00134-.0144-.001-.02167.00055a6.39849,6.39849,0,0,1-2.31769.05206c-.10419-.01666-.20764-.02734-.31268-.04913a1.0798,1.0798,0,0,0-.53394.02332,1.06213,1.06213,0,0,0-.16052.06873c-.0249.012-.05157.01849-.07568.03247a1.06417,1.06417,0,0,0-.09467.07111,1.14958,1.14958,0,0,0-.12445.09344l-.063.06323ZM4.437,20.98047l-.26855-2.36914.10089-.09528.7243-.67719c.11542.0235.23071.03381.34595.05145a8.28109,8.28109,0,0,0,2.38934.00751c.11884-.01465.23486-.02417.356-.04236l.74811.74573-.26373,2.33728A2.33285,2.33285,0,0,1,7.3125,22.57715l-.52393.26172a.65057.65057,0,0,1-.57666,0l-.5249-.26172A2.32215,2.32215,0,0,1,4.437,20.98047Zm2.9917,2.65582v.61957a.93017.93017,0,0,1-1.58594.65234.91648.91648,0,0,1-.271-.65234v-.61938l.19434.09692a1.65379,1.65379,0,0,0,1.46826,0ZM9.5,26.43652v4.57324H3.85693v-2.21a.5.5,0,0,0-1,0v2.21H1V26.44043a1.79584,1.79584,0,0,1,1.33594-1.72656l2.23584-.58252v.12451A1.9255,1.9255,0,0,0,6.5,26.17871a1.9278,1.9278,0,0,0,1.92871-1.92285v-.12439l1.7832.46466A2.76127,2.76127,0,0,0,9.5,26.43652Zm12,4.57324H19.64307v-2.21a.5.5,0,0,0-1,0v2.21H13.35693v-2.21a.5.5,0,0,0-1,0v2.21H10.5V26.43652a1.78067,1.78067,0,0,1,1.333-1.71973l2.23877-.58417v.12323A1.9255,1.9255,0,0,0,16,26.17871a1.9278,1.9278,0,0,0,1.92871-1.92285v-.12311l2.23828.584A1.78067,1.78067,0,0,1,21.5,26.43652Zm9.5,0H29.14307v-2.21a.5.5,0,0,0-1,0v2.21H22.5V26.43652a2.76118,2.76118,0,0,0-.712-1.84045l1.78375-.46472v.12451A1.9255,1.9255,0,0,0,25.5,26.17871a1.9278,1.9278,0,0,0,1.92871-1.92285v-.12427l2.23242.58228A1.79514,1.79514,0,0,1,31,26.44043Z" fill="#ffffff" class="color000 svgShape"></path></svg></g></svg>