<svg id="SvgjsSvg1391" width="288" height="288" xmlns="http://www.w3.org/2000/svg" version="1.1" xmlns:xlink="http://www.w3.org/1999/xlink" xmlns:svgjs="http://svgjs.com/svgjs"><defs id="SvgjsDefs1392"></defs><g id="SvgjsG1393"><svg xmlns="http://www.w3.org/2000/svg" enable-background="new 0 0 512 512" viewBox="0 0 512 512" width="288" height="288"><path fill="none" stroke="#244ae8" stroke-linecap="round" stroke-linejoin="round" stroke-miterlimit="10" stroke-width="15" d="M378.3,18h-47.5l-18,14.56h-117L177.8,18h-47.5c-11.05,0-20,8.95-20,20v437c0,11.05,8.95,20,20,20h248c11.05,0,20-8.95,20-20V38C398.3,26.95,389.35,18,378.3,18z M276.36,468.2h-44.12c-1.36,0-2.6-0.56-3.49-1.45s-1.45-2.13-1.45-3.49c0-2.72,2.22-4.94,4.94-4.94h44.12c1.36,0,2.6,0.56,3.49,1.45c0.89,0.89,1.45,2.13,1.45,3.49C281.3,465.98,279.08,468.2,276.36,468.2z" class="colorStroke000 svgStroke"></path><polygon fill="none" stroke="#244ae8" stroke-linecap="round" stroke-linejoin="round" stroke-miterlimit="10" stroke-width="15" points="195.803 32.56 177.803 18 330.803 18 312.803 32.56" class="colorStroke000 svgStroke"></polygon><path fill="none" stroke="#244ae8" stroke-linecap="round" stroke-linejoin="round" stroke-miterlimit="10" stroke-width="15" d="M281.3,463.26c0,2.72-2.22,4.94-4.94,4.94h-44.12c-1.36,0-2.6-0.56-3.49-1.45s-1.45-2.13-1.45-3.49c0-2.72,2.22-4.94,4.94-4.94h44.12c1.36,0,2.6,0.56,3.49,1.45C280.74,460.66,281.3,461.9,281.3,463.26z" class="colorStroke000 svgStroke"></path><polygon fill="none" stroke="#244ae8" stroke-linecap="round" stroke-linejoin="round" stroke-miterlimit="10" stroke-width="15" points="330.803 18 312.803 32.56 195.803 32.56 177.803 18" class="colorStroke000 svgStroke"></polygon><line x1="401.697" x2="401.697" y1="83.012" y2="130.067" fill="none" stroke="#244ae8" stroke-linecap="round" stroke-linejoin="round" stroke-miterlimit="10" stroke-width="15" class="colorStroke000 svgStroke"></line><line x1="401.697" x2="401.697" y1="166.917" y2="195.831" fill="none" stroke="#244ae8" stroke-linecap="round" stroke-linejoin="round" stroke-miterlimit="10" stroke-width="15" class="colorStroke000 svgStroke"></line><line x1="401.697" x2="401.697" y1="208.917" y2="237.831" fill="none" stroke="#244ae8" stroke-linecap="round" stroke-linejoin="round" stroke-miterlimit="10" stroke-width="15" class="colorStroke000 svgStroke"></line><line x1="247" x2="265" y1="405" y2="405" fill="none" stroke="#244ae8" stroke-linecap="round" stroke-linejoin="round" stroke-miterlimit="10" stroke-width="15" class="colorStroke000 svgStroke"></line><line x1="292" x2="310" y1="405" y2="405" fill="none" stroke="#244ae8" stroke-linecap="round" stroke-linejoin="round" stroke-miterlimit="10" stroke-width="15" class="colorStroke000 svgStroke"></line><line x1="220" x2="202" y1="405" y2="405" fill="none" stroke="#244ae8" stroke-linecap="round" stroke-linejoin="round" stroke-miterlimit="10" stroke-width="15" class="colorStroke000 svgStroke"></line><path fill="none" stroke="#244ae8" stroke-linecap="round" stroke-linejoin="round" stroke-miterlimit="10" stroke-width="15" d="M331 153h30c6.6 0 12-5.4 12-12v-30c0-6.6-5.4-12-12-12h-30c-6.6 0-12 5.4-12 12v30C319 147.6 324.4 153 331 153zM241 153h30c6.6 0 12-5.4 12-12v-30c0-6.6-5.4-12-12-12h-30c-6.6 0-12 5.4-12 12v30C229 147.6 234.4 153 241 153zM151 153h30c6.6 0 12-5.4 12-12v-30c0-6.6-5.4-12-12-12h-30c-6.6 0-12 5.4-12 12v30C139 147.6 144.4 153 151 153zM331 243h30c6.6 0 12-5.4 12-12v-30c0-6.6-5.4-12-12-12h-30c-6.6 0-12 5.4-12 12v30C319 237.6 324.4 243 331 243zM241 243h30c6.6 0 12-5.4 12-12v-30c0-6.6-5.4-12-12-12h-30c-6.6 0-12 5.4-12 12v30C229 237.6 234.4 243 241 243zM151 243h30c6.6 0 12-5.4 12-12v-30c0-6.6-5.4-12-12-12h-30c-6.6 0-12 5.4-12 12v30C139 237.6 144.4 243 151 243zM331 333h30c6.6 0 12-5.4 12-12v-30c0-6.6-5.4-12-12-12h-30c-6.6 0-12 5.4-12 12v30C319 327.6 324.4 333 331 333zM241 333h30c6.6 0 12-5.4 12-12v-30c0-6.6-5.4-12-12-12h-30c-6.6 0-12 5.4-12 12v30C229 327.6 234.4 333 241 333zM151 333h30c6.6 0 12-5.4 12-12v-30c0-6.6-5.4-12-12-12h-30c-6.6 0-12 5.4-12 12v30C139 327.6 144.4 333 151 333z" class="colorStroke000 svgStroke"></path></svg></g></svg>