<svg id="SvgjsSvg1126" width="288" height="288" xmlns="http://www.w3.org/2000/svg" version="1.1" xmlns:xlink="http://www.w3.org/1999/xlink" xmlns:svgjs="http://svgjs.com/svgjs"><defs id="SvgjsDefs1127"></defs><g id="SvgjsG1128"><svg xmlns="http://www.w3.org/2000/svg" enable-background="new 0 0 512 512" viewBox="0 0 512 512" width="288" height="288"><path fill="#ffffff" d="M468,410.3l-8.8,8c-4.1,3.8-9.1,6.4-14.4,7.7l66.9-168.2c0.6-1.5,0.4-3.3-0.5-4.7
			s-2.5-2.2-4.1-2.2h-38v-35c0-0.7-0.2-1.4-0.4-2c-0.2-0.3-0.6-0.7-0.6-1v-55c0-2.8-2.2-5-5-5h-80v-25c0-2.8-2.2-5-5-5h-85
			c-2.8,0-5,2.2-5,5v83h-80.3c-2.8,0-4.7,2.2-4.7,5v77h-45V155.2l14.6-24.7c0.9-1.6,0.9-3.4,0-5c-0.9-1.6-2.6-2.5-4.4-2.5H119v-8h16
			v-10h-16V75h-10v30H93v10h16v8H60c-2.8,0-5,2.2-5,5v25.3c0,2.8,2.2,4.7,5,4.7h10v135H5c-1.8,0-3.4,0.9-4.3,2.4
			c-0.9,1.5-1,3.4-0.1,4.9l65.6,125.6c-5.2-1.4-10.1-4-14.1-7.8l-7.9-7.4c-8-7.5-18.4-11.6-29.4-11.6H0v10h14.8
			c8.4,0,16.4,3.2,22.5,8.9l7.9,7.4c8,7.5,18.4,11.7,29.4,11.7h0.5c10.9,0,21.3-4.1,29.3-11.5l8.2-7.6c6.1-5.7,14.1-8.8,22.4-8.8
			h0.5c8.3,0,16.2,3.1,22.3,8.8l8.5,7.8c7.9,7.4,18.3,11.4,29.1,11.4h0.4c10.8,0,21.1-4,29-11.3l8.8-8c6.1-5.6,14-8.7,22.3-8.7
			c8.4,0,16.4,3.2,22.5,8.9l7.9,7.4c8,7.5,18.4,11.7,29.4,11.7h0.6c10.9,0,21.3-4.1,29.3-11.5l8.2-7.6c6.1-5.7,14.1-8.8,22.4-8.8
			h0.5c8.3,0,16.3,3.1,22.3,8.8l8.5,7.8c8,7.4,18.3,11.4,29.1,11.4h0.4c10.8,0,21.1-4,29-11.3l8.8-8c6.1-5.6,14-8.7,22.3-8.7h15v-10
			h-15C486.2,399,475.9,403,468,410.3z M298,221h80h81v30H298V221z M298,133h75v25v53h-75V133z M129,214c0,2.8-2.2,5-5,5h-20
			c-2.8,0-5-2.2-5-5v-28c0-2.8,2.2-5,5-5h20c2.8,0,5,2.2,5,5V214z M65,133h94.6l-8.9,14.8l-0.2,0.2H75H65V133z M75,303h78h54.7H256
			c1.4,0,2.8-0.6,3.8-1.7l35.5-40.3H464h35.6l-31,78H32l-18.8-36H75z" class="color0d0d0d svgShape"></path><rect width="130" height="10" x="321" y="293" fill="#ffffff" class="color0d0d0d svgShape"></rect></svg></g></svg>